PathFileType	4	(X/Y/Z)	F:\Vicon\SynologyDrive\Marcel_BSc\Ayumi_25_09_2024\25-09-2024\conventional_dl_80kg03.trc
DataRate	CameraRate	NumFrames	NumMarkers	Units	OrigDataRate	OrigDataStartFrame	OrigNumFrames
200.0	200.0	95	1	mm	200.0	1051	2801	
Frame#	Time	RBAR			
		X1	Y1	Z1	
1051	5.245	143.04765	245.34126	-1695.776
1052	5.25	142.95883	245.27452	-1695.6183
1053	5.255	142.92841	245.23712	-1695.5165
1054	5.26	142.9099	245.21037	-1695.4142
1055	5.265	142.90213	245.16159	-1695.321
1056	5.27	142.8764	245.13437	-1695.2257
1057	5.275	142.95001	245.18687	-1695.1761
1058	5.28	142.87968	245.08173	-1695.0001
1059	5.285	142.91946	245.07402	-1694.8871
1060	5.29	143.00221	245.05614	-1694.7775
1061	5.295	143.10493	245.04677	-1694.6589
1062	5.3	143.27513	245.13174	-1694.6747
1063	5.305	143.37755	245.08807	-1694.5736
1064	5.31	143.45375	245.06285	-1694.48
1065	5.315	143.54147	245.05119	-1694.392
1066	5.32	143.66655	245.02695	-1694.3082
1067	5.325	143.83665	245.04198	-1694.2432
1068	5.33	144.03003	245.02112	-1694.1647
1069	5.335	144.2384	245.0029	-1694.0688
1070	5.34	144.37692	244.86412	-1693.8562
1071	5.345	144.61186	244.85852	-1693.7916
1072	5.35	144.87457	244.83502	-1693.7191
1073	5.355	145.10439	244.80237	-1693.6451
1074	5.36	145.3185	244.7971	-1693.592
1075	5.365	145.56509	244.7766	-1693.5217
1076	5.37	145.82593	244.75185	-1693.4506
1077	5.375	146.11087	244.70676	-1693.3802
1078	5.38	146.45671	244.69373	-1693.2897
1079	5.385	146.86407	244.70708	-1693.2484
1080	5.39	147.26393	244.71873	-1693.1865
1081	5.395	147.636	244.75493	-1693.1163
1082	5.4	148.04872	244.81088	-1693.0282
1083	5.405	148.4747	244.8687	-1692.9363
1084	5.41	148.85176	244.95844	-1692.9037
1085	5.415	149.28267	245.05086	-1692.8558
1086	5.42	149.73537	245.13095	-1692.7723
1087	5.425	150.20154	245.22495	-1692.6646
1088	5.43	150.71036	245.35709	-1692.6185
1089	5.435	151.25594	245.50694	-1692.5371
1090	5.44	151.76617	245.65962	-1692.4896
1091	5.445	152.28918	245.79375	-1692.4111
1092	5.45	152.81477	245.91554	-1692.3197
1093	5.455	153.35773	246.03107	-1692.2126
1094	5.46	153.92229	246.17244	-1692.1726
1095	5.465	154.52855	246.32903	-1692.0652
1096	5.47	155.10255	246.49443	-1692.0277
1097	5.475	155.68002	246.65167	-1691.9402
1098	5.48	156.30859	246.83873	-1691.8384
1099	5.485	156.88698	247.05772	-1691.7957
1100	5.49	157.53069	247.28079	-1691.7318
1101	5.495	158.10028	247.53276	-1691.6519
1102	5.5	158.7084	247.78859	-1691.5797
1103	5.505	159.33838	248.07191	-1691.5103
1104	5.51	159.96492	248.36455	-1691.4126
1105	5.515	160.56845	248.73065	-1691.3868
1106	5.52	161.20103	249.0705	-1691.271
1107	5.525	161.76833	249.47287	-1691.2516
1108	5.53	162.3956	249.87256	-1691.1876
1109	5.535	163.03102	250.29805	-1691.1378
1110	5.54	163.61726	250.74586	-1691.0892
1111	5.545	164.24689	251.20917	-1691.021
1112	5.55	164.89868	251.67293	-1690.9696
1113	5.555	165.52121	252.14589	-1690.9165
1114	5.56	166.21767	252.63506	-1690.8514
1115	5.565	166.8866	253.13121	-1690.8085
1116	5.57	167.60986	253.61411	-1690.7578
1117	5.575	168.31511	254.11797	-1690.6816
1118	5.58	169.05251	254.64931	-1690.6088
1119	5.585	169.77197	255.22971	-1690.5312
1120	5.59	170.52209	255.77745	-1690.4678
1121	5.595	171.26622	256.36407	-1690.3945
1122	5.6	172.00154	256.97299	-1690.3185
1123	5.605	172.75189	257.58682	-1690.2352
1124	5.61	173.48595	258.19894	-1690.1366
1125	5.615	174.20717	258.84915	-1690.0657
1126	5.62	174.95761	259.49933	-1689.9675
1127	5.625	175.66035	260.18796	-1689.896
1128	5.63	176.43208	260.89624	-1689.796
1129	5.635	177.14282	261.60666	-1689.707
1130	5.64	177.85873	262.34253	-1689.6222
1131	5.645	178.57693	263.09628	-1689.5201
1132	5.65	179.24603	263.87317	-1689.434
1133	5.655	179.97227	264.64612	-1689.3372
1134	5.66	180.63458	265.4194	-1689.2587
1135	5.665	181.34128	266.20624	-1689.1571
1136	5.67	182.04396	267.01682	-1689.059
1137	5.675	182.76198	267.82938	-1688.9727
1138	5.68	183.46829	268.64471	-1688.899
1139	5.685	184.17787	269.45938	-1688.7959
1140	5.69	184.95102	270.26852	-1688.702
1141	5.695	185.67039	271.1181	-1688.6102
1142	5.7	186.43013	271.95319	-1688.5236
1143	5.705	187.18761	272.8374	-1688.4086
1144	5.71	187.9505	273.7128	-1688.3315
1145	5.715	188.7195	274.60815	-1688.2415
